<svg width="113" height="50" viewBox="0 0 113 50" fill="none" xmlns="http://www.w3.org/2000/svg">
<path d="M1.96791 41C0.194367 41 -0.50238 39.7365 0.384389 38.2835L20.9068 2.71649C21.7935 1.20031 23.8838 0 25.6573 0H101.476C103.25 0 105.91 0.694915 107.367 1.57935L109.014 2.52696C110.534 3.4114 111.357 5.43297 110.851 7.13868L109.077 13.077C108.57 14.7196 106.797 16.5516 105.15 17.057L31.2313 40.0524C29.5844 40.5578 26.7974 41 25.0239 41H1.96791Z" fill="#84CB98"/>
<circle cx="89.8317" cy="16.8317" r="11" transform="rotate(-17.765 89.8317 16.8317)" fill="#262E49" fill-opacity="0.4"/>
<circle cx="89.8317" cy="16.8317" r="6.05397" transform="rotate(-17.765 89.8317 16.8317)" fill="#262E49" fill-opacity="0.4"/>
<g filter="url(#filter0_d_66_6725)">
<path d="M88.3345 40.6772C87.7937 39.9818 87.1176 38.5717 85.9393 36.814C85.2633 35.8482 83.6021 34.0132 83.0999 33.0667C82.7379 32.4915 82.6328 31.7912 82.8102 31.1351C83.1133 29.8877 84.2966 29.0602 85.5723 29.2035C86.559 29.4017 87.4657 29.8853 88.18 30.5943C88.6787 31.064 89.1374 31.5744 89.5514 32.1202C89.8605 32.5065 89.9377 32.6611 90.2854 33.1053C90.6331 33.5496 90.8649 33.9939 90.6911 33.3371C90.5559 32.3713 90.3241 30.7488 89.9957 29.3001C89.7446 28.1991 89.6866 28.0253 89.4548 27.1947C89.2231 26.3641 89.0878 25.6687 88.8367 24.7222C88.6072 23.7923 88.4267 22.851 88.2959 21.9021C88.0524 20.6885 88.2295 19.4281 88.7981 18.3287C89.473 17.6939 90.463 17.5263 91.3092 17.9037C92.1602 18.5321 92.7948 19.4097 93.1249 20.4148C93.6311 21.6517 93.9689 22.9511 94.1293 24.278C94.4384 26.2096 95.0371 29.0297 95.0565 29.6092C95.0565 28.8945 94.9213 27.3878 95.0565 26.7118C95.1904 26.007 95.6803 25.4221 96.3506 25.1665C96.9259 24.99 97.5344 24.9503 98.1277 25.0506C98.7266 25.1758 99.257 25.5203 99.615 26.0164C100.063 27.1433 100.311 28.3393 100.349 29.5512C100.401 28.49 100.582 27.4391 100.89 26.422C101.213 25.9672 101.684 25.6393 102.223 25.4949C102.861 25.3781 103.516 25.3781 104.154 25.4949C104.678 25.6699 105.136 26 105.468 26.4413C105.877 27.4658 106.124 28.5474 106.202 29.6478C106.202 29.9182 106.337 28.8945 106.762 28.2184C106.983 27.5628 107.537 27.0748 108.215 26.9383C108.893 26.8017 109.592 27.0374 110.05 27.5564C110.507 28.0754 110.653 28.799 110.432 29.4546C110.432 30.7102 110.432 30.6522 110.432 31.5021C110.432 32.352 110.432 33.1053 110.432 33.82C110.362 34.9504 110.207 36.0738 109.968 37.181C109.632 38.1605 109.164 39.0898 108.578 39.9432C107.64 40.9862 106.865 42.1649 106.279 43.4394C106.134 44.0725 106.069 44.7215 106.086 45.371C106.084 45.971 106.162 46.5686 106.318 47.148C105.528 47.2315 104.732 47.2315 103.942 47.148C103.188 47.0321 102.261 45.5255 102.01 45.0619C101.886 44.813 101.632 44.6557 101.353 44.6557C101.075 44.6557 100.821 44.813 100.697 45.0619C100.272 45.7959 99.3253 47.1287 98.6685 47.206C97.3744 47.3605 94.7088 47.206 92.6033 47.206C92.6033 47.206 92.951 45.2744 92.1591 44.579C91.3671 43.8836 90.5559 43.0724 89.9571 42.5315L88.3345 40.6772Z" fill="white"/>
<path fill-rule="evenodd" clip-rule="evenodd" d="M111.155 33.865C111.156 32.7287 111.156 32.7287 111.156 31.5021V29.5638C111.403 28.6961 111.193 27.7586 110.593 27.0775C109.965 26.3643 109.004 26.0406 108.072 26.2282C107.437 26.356 106.881 26.708 106.496 27.2043C106.394 26.8544 106.275 26.5106 106.14 26.1727C105.627 25.4474 105.047 25.0295 104.384 24.8079C103.56 24.6498 102.817 24.6498 102.092 24.7823C101.367 24.9745 100.774 25.373 100.356 25.9248C100.334 25.8661 100.311 25.8075 100.288 25.749C99.7387 24.9499 99.0516 24.5037 98.2759 24.3416C97.5439 24.2173 96.8213 24.2644 96.1381 24.474C95.6992 24.6405 95.322 24.8985 95.0251 25.2217C94.9537 24.8222 94.8946 24.4766 94.8445 24.1635C94.6802 22.7998 94.326 21.4374 93.7952 20.1404C93.436 19.0409 92.7114 18.0387 91.7394 17.321C90.4914 16.7459 89.1894 16.9662 88.3018 17.801L88.1547 17.9959C87.5105 19.2416 87.3098 20.6696 87.5857 22.0446C87.7126 22.975 87.8979 23.9413 88.1335 24.8958C88.2427 25.3078 88.2432 25.3098 88.4741 26.2777C88.4889 26.3397 88.4964 26.3708 88.5038 26.4019C88.5113 26.433 88.5189 26.4642 88.5339 26.5266C88.6126 26.8504 88.6813 27.1175 88.7571 27.3894C88.8869 27.8514 88.937 28.0303 88.9803 28.1908L89.006 28.2868C89.0856 28.587 89.1639 28.9105 89.2895 29.4612C89.4046 29.9691 89.5061 30.4796 89.6035 31.0339C89.3133 30.6984 89.003 30.3744 88.6766 30.067C87.8753 29.2713 86.8407 28.7195 85.715 28.4934C84.0151 28.2997 82.4956 29.3623 82.1063 30.964C81.8808 31.7974 82.0171 32.7062 82.4869 33.4526C82.7097 33.8768 83.1417 34.4596 83.9092 35.4109L84.0287 35.5587C84.9197 36.6587 85.08 36.8564 85.2283 37.0626C85.2647 37.1132 85.3004 37.1643 85.3459 37.2294C85.6255 37.6466 86.1157 38.4551 86.5884 39.2347C87.1169 40.1063 87.6235 40.9419 87.7894 41.1542L89.4119 43.0085C89.6241 43.2046 90.1872 43.7376 90.5737 44.1033C90.7643 44.2837 90.9119 44.4234 90.9532 44.462C91.1404 44.6366 91.3122 44.7942 91.4771 44.9421C91.5281 44.9878 91.5536 45.0105 91.5792 45.0332C91.6046 45.0558 91.6302 45.0784 91.6811 45.1233C91.7965 45.2246 91.8934 45.4781 91.9339 45.8485C91.9683 46.1627 91.9589 46.5133 91.9214 46.8496C91.9091 46.9605 91.8972 47.0401 91.8904 47.0776C91.8105 47.5219 92.1519 47.9303 92.6033 47.9303C93.1232 47.9303 93.6599 47.9388 94.5131 47.9578L94.8075 47.9645C97.1188 48.017 97.9852 48.017 98.7544 47.9252C99.6335 47.8218 100.569 46.7288 101.362 45.3854C102.037 46.6319 102.904 47.7212 103.832 47.8639C104.706 47.9572 105.553 47.9572 106.394 47.8683C106.837 47.8215 107.133 47.39 107.017 46.96C106.878 46.4426 106.808 45.909 106.81 45.3733C106.794 44.7634 106.853 44.1752 106.985 43.6014C107.492 42.5336 108.227 41.4162 109.116 40.4275C109.798 39.446 110.296 38.4578 110.653 37.4161C110.922 36.1908 111.082 35.0315 111.155 33.865ZM91.6796 43.1553C91.3027 42.7988 90.6442 42.176 90.4427 41.994L88.8967 40.2196C88.7835 40.0662 88.4157 39.4573 87.9885 38.7501C87.4806 37.9092 86.8888 36.9294 86.5411 36.4107C86.3799 36.1801 86.181 35.9202 85.9097 35.5802C85.8042 35.4481 85.7289 35.3547 85.5398 35.1215L85.1545 34.6469L85.0368 34.5013C84.3324 33.6283 83.9294 33.0844 83.7398 32.7272C83.4587 32.2769 83.3849 31.785 83.5095 31.3241C83.7311 30.4132 84.5783 29.8208 85.4916 29.9233C86.2773 30.0839 87.0562 30.4994 87.6698 31.1084C88.1529 31.5637 88.5847 32.0442 88.9744 32.558C89.0953 32.7095 89.1713 32.8113 89.2909 32.9788C89.4965 33.2673 89.5552 33.3475 89.7151 33.5518C89.7265 33.5663 89.7572 33.608 89.7978 33.6629C89.9095 33.8141 90.0955 34.0659 90.1569 34.131C90.2324 34.2271 90.2324 34.2271 90.6176 34.385C91.4443 34.0804 91.4489 34.0736 91.473 33.6853C91.4824 33.5327 91.4561 33.3962 91.3914 33.1518C91.1706 31.5378 90.975 30.3435 90.7022 29.14C90.573 28.5733 90.491 28.2345 90.4065 27.9157L90.3791 27.8132C90.3336 27.645 90.2813 27.4582 90.1526 27C90.0817 26.7458 90.0169 26.4938 89.9418 26.1847C89.9272 26.1245 89.9199 26.0942 89.9126 26.064C89.9053 26.0334 89.898 26.0029 89.8833 25.9415C89.6486 24.9578 89.6476 24.9535 89.5369 24.5365C89.3166 23.6434 89.1408 22.7269 89.0135 21.8032C88.804 20.7523 88.9367 19.7042 89.3827 18.7792C89.8403 18.4088 90.4706 18.3228 91.0142 18.5652C91.6091 19.0256 92.1536 19.7785 92.4368 20.6408C92.9362 21.8661 93.2576 23.1024 93.4103 24.3649C93.494 24.8918 93.5953 25.4662 93.7305 26.1983L93.7907 26.5226C94.3207 29.366 94.3244 29.3863 94.3326 29.6333C94.3642 30.5826 95.7809 30.559 95.7809 29.6092C95.7809 29.3999 95.7768 29.2877 95.7502 28.6599C95.7398 28.4122 95.7357 28.3067 95.731 28.1621C95.7105 27.5207 95.7207 27.0845 95.7668 26.8538C95.8552 26.3892 96.1733 26.0093 96.6088 25.8433C97.0306 25.7156 97.525 25.6833 98.007 25.7648C98.4016 25.8479 98.7754 26.0906 99.0277 26.4402C99.3584 27.3327 99.5896 28.446 99.6251 29.574C99.6543 30.5014 101.027 30.5132 101.073 29.5865C101.119 28.6269 101.279 27.6762 101.547 26.754C101.768 26.482 102.07 26.2858 102.41 26.1945C102.905 26.1064 103.472 26.1064 104.024 26.2074C104.309 26.3103 104.645 26.5526 104.889 26.8766C105.176 27.6648 105.407 28.673 105.479 29.6986C105.475 29.6972 105.471 29.696 105.468 29.6975C105.458 29.7046 105.488 29.7734 105.667 30.1756C106.403 30.3034 106.626 30.3421 106.734 30.2482C106.781 30.2073 106.805 30.1411 106.841 30.0461L106.841 30.046C106.891 29.9442 106.891 29.9441 106.905 29.9009C106.923 29.8481 106.942 29.7776 106.975 29.6499C107.047 29.3767 107.113 29.164 107.199 28.9553C107.255 28.8188 107.315 28.7003 107.375 28.6039C107.587 28.0393 107.933 27.7339 108.358 27.6484C108.782 27.5629 109.22 27.7104 109.506 28.0353C109.793 28.3602 109.884 28.8131 109.746 29.2234L109.708 29.4546V33.82C109.641 34.8692 109.491 35.9568 109.26 37.0286C108.968 37.8633 108.53 38.7336 107.981 39.5328C107.052 40.5561 106.237 41.7961 105.621 43.1369C105.414 43.9699 105.343 44.6797 105.362 45.39C105.36 45.7503 105.387 46.1165 105.441 46.4817C104.966 46.4957 104.491 46.4777 104.018 46.4277C103.783 46.3907 103.065 45.4885 102.647 44.7169C102.412 44.2439 101.906 43.9314 101.354 43.9314C100.801 43.9314 100.296 44.2439 100.049 44.7384C99.5693 45.5637 98.8016 46.461 98.584 46.4866C97.9139 46.5666 97.0577 46.5666 94.8405 46.5162L94.5455 46.5095C94.0903 46.4993 93.7235 46.4921 93.4002 46.4876C93.4098 46.2211 93.4028 45.953 93.3741 45.6908C93.2979 44.9948 93.0795 44.4232 92.6371 44.0347C92.5894 43.9927 92.5654 43.9715 92.5415 43.9503C92.5173 43.9288 92.4932 43.9072 92.4446 43.8638C92.2874 43.7227 92.1223 43.5713 91.9415 43.4027C91.9118 43.3749 91.8135 43.2819 91.6796 43.1553Z" fill="black"/>
<path d="M104.715 41.7316V35.0642C104.715 34.6651 104.39 34.3416 103.99 34.3416C103.59 34.3416 103.266 34.6651 103.266 35.0642V41.7316C103.266 42.1307 103.59 42.4542 103.99 42.4542C104.39 42.4542 104.715 42.1307 104.715 41.7316Z" fill="black"/>
<path d="M100.89 41.7292L100.851 35.0583C100.849 34.6602 100.523 34.3393 100.123 34.3416C99.7227 34.3439 99.4003 34.6685 99.4026 35.0666L99.4412 41.7375C99.4435 42.1356 99.7697 42.4565 100.17 42.4542C100.57 42.4519 100.892 42.1273 100.89 41.7292Z" fill="black"/>
<path d="M95.5393 35.0736L95.578 41.7307C95.5803 42.1326 95.9065 42.4566 96.3065 42.4542C96.7065 42.4519 97.029 42.1241 97.0266 41.7222L96.988 35.0651C96.9857 34.6632 96.6595 34.3392 96.2594 34.3416C95.8594 34.3439 95.537 34.6717 95.5393 35.0736Z" fill="black"/>
</g>
<defs>
<filter id="filter0_d_66_6725" x="81.2" y="17" width="30.8576" height="32.8" filterUnits="userSpaceOnUse" color-interpolation-filters="sRGB">
<feFlood flood-opacity="0" result="BackgroundImageFix"/>
<feColorMatrix in="SourceAlpha" type="matrix" values="0 0 0 0 0 0 0 0 0 0 0 0 0 0 0 0 0 0 127 0" result="hardAlpha"/>
<feOffset dy="1"/>
<feGaussianBlur stdDeviation="0.4"/>
<feColorMatrix type="matrix" values="0 0 0 0 0 0 0 0 0 0 0 0 0 0 0 0 0 0 0.5 0"/>
<feBlend mode="normal" in2="BackgroundImageFix" result="effect1_dropShadow_66_6725"/>
<feBlend mode="normal" in="SourceGraphic" in2="effect1_dropShadow_66_6725" result="shape"/>
</filter>
</defs>
</svg>
