<svg width="629" height="666" viewBox="0 0 629 666" fill="none" xmlns="http://www.w3.org/2000/svg">
<rect x="0.5" y="0.5" width="627.202" height="664.434" rx="4.5" stroke="#9747FF" stroke-dasharray="10 5"/>
<path d="M316.182 471.241C316.182 468.702 317 464.801 317.999 462.533L348.173 395.318C349.173 393.051 351.718 392.325 353.808 393.686L392.98 419.084C395.07 420.445 395.615 423.257 394.252 425.343L318.545 538.638C317.182 540.724 316 540.361 316 537.912V471.241H316.182Z" fill="#8894D8"/>
<path d="M296.776 618.91C294.239 618.91 291.703 616.922 290.978 614.572L279.381 573.277C278.747 570.928 276.935 567.313 275.395 565.325L251.749 534.693C250.209 532.705 249.574 529.181 250.299 526.831L266.426 473.337C267.15 470.988 269.778 469 272.224 469H306.47C309.007 469 311 471.078 311 473.518V614.482C311 617.012 308.916 619 306.47 619H296.776V618.91Z" fill="#84CB98"/>
<path d="M354.827 388.547C352.731 387.193 351 384.034 351 381.596V361.825C351 359.298 352.64 356.048 354.554 354.513L372.505 340.52C374.51 338.985 376.697 335.826 377.334 333.388L413.601 211.333C414.33 208.986 416.973 207 419.433 207H458.615C461.167 207 462.534 208.986 461.805 211.333L399.842 412.471C399.113 414.818 396.835 415.721 394.648 414.367L354.827 388.547Z" fill="#8894D8"/>
<path d="M213.718 486.279C212.177 484.29 210.909 480.674 210.818 478.143L210.003 455.634C209.912 453.194 211.906 451.115 214.352 451.115H242.077C244.614 451.115 248.057 449.668 249.778 447.951L335.762 362.164C337.483 360.446 340.564 359 342.466 359C344.369 359 346 361.079 346 363.52V382.865C346 385.396 345.185 389.283 344.188 391.543L313.473 459.793C312.476 462.053 309.577 463.951 307.131 463.951H267.899C265.362 463.951 262.825 465.94 262.1 468.29L245.882 521.986C245.157 524.336 243.345 524.698 241.805 522.709L213.718 486.279Z" fill="#84CB98"/>
<path d="M214.504 445C211.976 445 209.899 443.037 209.809 440.538L208.003 391.462C207.913 389.052 209.899 387 212.337 387H298.652C301.181 387 301.722 388.428 300.007 390.123L247.73 441.877C246.014 443.572 242.493 445 240.055 445H214.504Z" fill="#84CB98"/>
<path d="M212.059 381C209.528 381 207.449 379.012 207.359 376.481L206.003 338.519C205.913 336.079 207.901 334 210.341 334H285.539C288.069 334 291.865 334.904 294.035 336.079L329.103 354.337C331.272 355.512 331.633 357.862 329.916 359.579L311.749 377.837C310.032 379.554 306.507 381 304.067 381H212.059ZM231.491 366.267C231.491 368.798 233.569 370.787 236.01 370.787H268.547C271.078 370.787 273.066 368.708 273.066 366.267V347.015C273.066 344.485 270.987 342.496 268.547 342.496H236.01C233.479 342.496 231.491 344.575 231.491 347.015V366.267Z" fill="#84CB98"/>
<path d="M241.559 366C239.006 366 237 363.855 237 361.337V352.663C237 350.052 239.097 348 241.559 348H263.441C265.903 348 268 350.145 268 352.663V361.337C268 363.948 265.903 366 263.441 366H241.559Z" fill="#84CB98"/>
<path d="M211.821 328.91C209.279 328.91 208.28 327.103 209.551 325.026L221.264 304.884C222.535 302.716 225.531 301 228.074 301H283.46C286.002 301 288 303.077 288 305.516V324.484C288 327.013 285.912 329 283.46 329H211.821V328.91Z" fill="#84CB98"/>
<path d="M231.79 294.911C229.276 294.911 228.288 293.14 229.545 291.103L243.193 267.809C244.451 265.683 247.414 264 249.928 264H283.51C286.025 264 288 266.037 288 268.429V290.571C288 293.051 285.935 295 283.51 295H231.79V294.911Z" fill="#84CB98"/>
<path d="M342.822 353C340.272 353 336.446 352.098 334.26 350.926L297.008 331.811C294.822 330.639 293 327.663 293 325.229V267.523C293 264.998 294.913 262.383 297.372 261.662L398.747 230.194C401.115 229.473 402.481 230.825 401.844 233.17L373.062 329.918C372.333 332.262 370.147 335.508 368.234 337.041L351.293 350.205C349.289 351.738 345.646 353 343.186 353H342.822Z" fill="#84CB98"/>
<path d="M252.819 258C250.278 258 249.28 256.182 250.551 254.091L279.948 202.909C281.218 200.727 284.212 199 286.752 199H395.358C397.898 199 401.709 200 403.796 201.273L406.155 202.636C408.332 203.909 409.512 206.818 408.786 209.273L406.245 217.818C405.52 220.182 402.979 222.818 400.62 223.545L294.737 256.636C292.378 257.364 288.386 258 285.845 258H252.819Z" fill="#84CB98"/>
<path d="M289.797 193.911C287.276 193.911 286.286 192.123 287.546 190.068L305.188 159.68C306.449 157.535 309.329 156.463 311.669 157.267L325.621 162.004C327.961 162.808 331.832 164.06 334.172 164.864L392.769 184.705C395.11 185.509 397 187.923 397 190.068C397 192.213 394.93 194 392.499 194H289.797V193.911Z" fill="#8894D8"/>
<path d="M314.608 152.058C312.215 151.23 311.295 148.746 312.583 146.63L318.474 136.419C319.762 134.211 322.615 133.383 324.916 134.487L333.383 138.719C335.684 139.823 336.604 142.674 335.592 144.974L331.818 153.07C330.714 155.37 327.953 156.565 325.56 155.737L314.608 152.058Z" fill="#84CB98"/>
<path d="M338.976 160.445C336.641 159.633 335.563 157.106 336.641 154.85L342.21 142.667C343.288 140.411 342.3 137.704 340.054 136.531L327.39 130.124C325.144 129.041 324.336 126.333 325.593 124.167L332.599 111.894C333.857 109.729 336.282 109.368 338.078 111.082L393.766 163.965C395.563 165.679 397 169.109 397 171.545V175.696C397 178.223 395.114 179.577 392.778 178.765L338.976 160.445Z" fill="#8894D8"/>
<path d="M341.26 106.826C339.438 105.093 339.62 102.448 341.625 100.989L364.77 83.9356C366.775 82.4765 369.873 82.7501 371.605 84.574L422.817 138.927C424.548 140.751 424.366 143.487 422.361 145.128L403.954 159.902C402.04 161.452 398.942 161.361 397.12 159.628L341.26 106.826Z" fill="#84CB98"/>
<path d="M376.129 81.5466C374.409 79.73 374.681 77.0958 376.763 75.6425L417.863 46.9393C419.945 45.486 423.114 45.7585 424.924 47.4843L441.944 63.3801C443.754 65.1059 445.022 68.4667 444.75 71.01L443.845 78.64C443.573 81.0925 445.293 83.4541 447.828 83.9083L466.839 86.9966C469.283 87.3599 471.547 85.7249 471.909 83.1816L472.814 76.6417C473.176 74.1892 475.349 72.4633 477.612 72.8267C479.875 73.19 482.953 75.1883 484.221 77.3683L489.29 85.5433C490.558 87.6324 490.105 90.6299 488.113 92.1741L479.875 98.6232C477.884 100.167 474.715 102.711 472.814 104.255L433.434 135.956C431.533 137.5 428.545 137.318 426.825 135.501L376.129 81.5466ZM402.745 75.2792C400.844 76.9142 400.572 79.73 402.201 81.6375L425.286 109.069C426.916 110.976 429.722 111.249 431.623 109.614L444.297 98.8957C446.199 97.2607 446.47 94.4449 444.841 92.5374L421.846 65.1059C420.217 63.1984 417.41 62.9259 415.509 64.5609L402.745 75.2792Z" fill="#84CB98"/>
<path d="M410.056 82.2087C408.448 80.2922 408.716 77.3718 410.592 75.8204L414.88 72.0786C416.756 70.4359 419.614 70.7097 421.133 72.6262L436.944 91.7913C438.552 93.7078 438.284 96.6282 436.408 98.1796L432.12 101.921C430.244 103.564 427.386 103.29 425.867 101.374L410.056 82.2087Z" fill="#84CB98"/>
<path d="M453.89 79.6167C451.519 79.2359 449.763 76.761 450.026 74.0957L450.114 73.0486C450.377 70.4785 452.573 68.6699 454.943 69.0506L463.197 70.3833C465.568 70.7641 467.236 73.239 466.973 75.8091L466.797 76.9514C466.446 79.5215 464.251 81.3301 461.88 80.9494L453.89 79.6167Z" fill="#84CB98"/>
<path d="M418.069 200.91C415.543 200.91 411.753 199.917 409.677 198.653L406.88 197.028C404.714 195.764 403 192.784 403 190.256V171.478C403 168.95 404.624 165.7 406.519 164.165L427.905 147.011C429.8 145.477 433.048 142.949 434.943 141.324L471.759 111.801C473.654 110.267 475.278 110.989 475.368 113.517L476 158.116C476 160.554 475.459 164.616 474.737 166.964L465.713 196.666C464.991 199.014 462.375 201 459.848 201H418.069V200.91Z" fill="#84CB98"/>
<path d="M220.897 564.746C223.99 567.99 223.577 573.261 220.278 576.099L212.649 582.789C209.351 585.83 203.99 585.425 201.103 582.181C198.01 578.937 198.423 573.666 201.722 570.828L209.351 564.138C212.649 561.097 218.01 561.3 220.897 564.746Z" fill="#84CB98"/>
<path d="M154.649 410.978C155.549 412.978 154.749 415.378 152.749 416.278L137.349 423.578C135.349 424.478 132.949 423.678 132.049 421.678L129.049 415.378C128.149 413.378 128.949 410.978 130.949 410.078L146.349 402.778C148.349 401.878 150.749 402.678 151.649 404.678L154.649 410.978Z" fill="#84CB98"/>
<path d="M122.949 410.478C122.049 412.478 119.649 413.378 117.649 412.478L117.349 412.378C115.349 411.478 114.449 409.078 115.349 407.078L119.549 397.978C120.449 395.978 122.849 395.078 124.849 395.978L125.149 396.078C127.149 396.978 128.049 399.378 127.149 401.378L122.949 410.478Z" fill="#84CB98"/>
<path d="M143.649 394.378C144.849 396.178 144.549 398.578 142.849 399.578C141.149 400.578 138.949 399.978 137.749 398.078L135.549 394.678C134.349 392.878 134.649 390.478 136.349 389.478C137.949 388.478 140.249 389.078 141.449 390.978L143.649 394.378Z" fill="#84CB98"/>
<path d="M138 205C135.8 205 134 206.4 134 208.2C134 210 132.4 212.2 130.4 213.1L128.6 213.9C126.6 214.8 125 214.3 125 212.8C125 211.3 123.2 210 121 210H115C112.8 210 111 211.8 111 214V230C111 232.2 112.8 234 115 234H121C123.2 234 125 232.2 125 230V229.6C125 227.4 126.6 224.8 128.6 223.9L130.4 223.1C132.4 222.2 134 223.2 134 225.4V226.1C134 228.3 135.8 230.1 138 230.1H144C146.2 230.1 148 228.3 148 226.1V209.1C148 206.9 146.2 205.1 144 205.1H138V205Z" fill="#8894D8"/>
<path d="M253 90C253 92.2 251.2 94 249 94H242C239.8 94 238 92.2 238 90C238 87.8 239.8 86 242 86H249C251.2 86 253 87.8 253 90Z" fill="#8894D8"/>
<path d="M262 78C262 80.2 260.2 82 258 82H249C246.8 82 245 80.2 245 78V77C245 74.8 246.8 73 249 73H258C260.2 73 262 74.8 262 77V78Z" fill="#8894D8"/>
<path d="M415.121 556.449C414.19 558.449 411.707 559.349 409.638 558.449L397.43 552.949C395.361 552.049 394.43 549.649 395.361 547.649L398.879 540.349C399.81 538.349 402.293 537.449 404.362 538.349L416.57 543.849C418.639 544.749 419.57 547.149 418.639 549.149L415.121 556.449Z" fill="#8894D8"/>
<g opacity="0.9">
<path d="M456 474.6C456 478.12 453.66 481 450.8 481H448.2C445.34 481 443 478.12 443 474.6V463.4C443 459.88 445.34 457 448.2 457H450.8C453.66 457 456 459.88 456 463.4V474.6Z" fill="#8894D8"/>
</g>
<path d="M529 112.5C529 116.625 525.677 120 521.615 120H512.385C508.323 120 505 116.625 505 112.5C505 108.375 508.323 105 512.385 105H521.615C525.677 105 529 108.375 529 112.5Z" fill="#84CB98"/>
</svg>
