<svg width="156" height="48" viewBox="0 0 156 48" fill="none" xmlns="http://www.w3.org/2000/svg">
<rect x="0.5" y="0.5" width="155" height="35" rx="7.5" fill="white"/>
<rect x="0.5" y="0.5" width="155" height="35" rx="7.5" stroke="#E6E6E6"/>
<path d="M13.7 15.26H19.56V16.46H13.7V15.26ZM13.76 9.92H19.48V11.12H13.76V9.92ZM13.7 17.94H19.56V19.14H13.7V17.94ZM12.76 12.54H20.22V13.78H12.76V12.54ZM14.36 20.64H19.56V26.48H14.36V25.22H18.24V21.88H14.36V20.64ZM13.68 20.64H14.98V27.4H13.68V20.64ZM20.66 10.56H30.72V11.72H20.66V10.56ZM21.18 12.92H30.42V14.02H21.18V12.92ZM20.16 15.32H31.16V16.48H20.16V15.32ZM24.92 9.2H26.34V16.3H24.92V9.2ZM21.66 17.66H29.36V18.8H23.08V27.58H21.66V17.66ZM28.52 17.66H29.94V26.02C29.94 26.76 29.78 27.12 29.28 27.34C28.74 27.54 27.9 27.54 26.66 27.54C26.6 27.18 26.4 26.66 26.22 26.3C27.12 26.34 27.94 26.32 28.2 26.32C28.46 26.3 28.52 26.24 28.52 26V17.66ZM22.3 20.24H29.24V21.32H22.3V20.24ZM22.3 22.76H29.24V23.84H22.3V22.76ZM36.78 17.1V24.18H35.36V18.5H32.9V17.1H36.78ZM36.78 23.58C37.72 25.08 39.5 25.76 41.88 25.86C44.14 25.96 48.84 25.9 51.3 25.74C51.12 26.06 50.88 26.74 50.82 27.16C48.54 27.26 44.18 27.3 41.9 27.22C39.24 27.12 37.42 26.4 36.16 24.82C35.3 25.68 34.4 26.54 33.44 27.44L32.66 26.02C33.52 25.36 34.58 24.46 35.5 23.58H36.78ZM33 10.44L34.16 9.68C35.34 10.64 36.68 12.02 37.24 13.02L35.98 13.88C35.46 12.88 34.16 11.44 33 10.44ZM38.26 17.66H50.4V18.82H38.26V17.66ZM37.62 20.74H51.02V21.92H37.62V20.74ZM41.22 16.22H42.66V21.32H41.22V16.22ZM45.94 16.22H47.36V21.32H45.94V16.22ZM38.76 12.34H42.28V11.04H38V10H43.6V13.4H38.76V12.34ZM38.34 12.34H39.62V14.42C39.62 14.8 39.72 14.88 40.36 14.88C40.64 14.88 42.16 14.88 42.54 14.88C43.02 14.88 43.12 14.76 43.18 13.88C43.42 14.08 43.92 14.24 44.28 14.3C44.14 15.6 43.76 15.94 42.74 15.94C42.42 15.94 40.52 15.94 40.22 15.94C38.74 15.94 38.34 15.64 38.34 14.44V12.34ZM45.36 12.34H48.82V11.04H44.56V10H50.12V13.4H45.36V12.34ZM44.92 12.34H46.2V14.42C46.2 14.8 46.32 14.88 47 14.88C47.32 14.88 48.96 14.88 49.36 14.88C49.86 14.88 49.96 14.76 50.02 13.82C50.28 14 50.78 14.16 51.14 14.24C51 15.6 50.62 15.94 49.54 15.94C49.22 15.94 47.18 15.94 46.86 15.94C45.34 15.94 44.92 15.64 44.92 14.42V12.34ZM45.58 22.82L46.66 22.16C48.12 22.86 49.76 23.84 50.72 24.58L49.24 25.24C48.44 24.5 46.96 23.54 45.58 22.82ZM41.92 22.12L43.24 22.58C42.22 23.56 40.6 24.54 39.26 25.18C39.04 24.92 38.48 24.44 38.16 24.24C39.52 23.7 41.02 22.94 41.92 22.12ZM67.32 11.1V13.22H69.36V11.1H67.32ZM64.12 11.1V13.22H66.12V11.1H64.12ZM61.02 11.1V13.22H62.92V11.1H61.02ZM59.78 10.02H70.62V14.3H59.78V10.02ZM60 15.54H70.22V16.68H60V15.54ZM59 18.1H71.22V19.3H59V18.1ZM59.2 21.2H70.94V22.38H59.2V21.2ZM59.6 23.82H70.5V24.98H59.6V23.82ZM64.32 14.02H65.76V18.58H64.32V14.02ZM64.32 21.72H65.76V27.76H64.32V21.72ZM61.5 19.48L62.74 19.2C63.06 19.76 63.42 20.54 63.54 21.06L62.24 21.4C62.12 20.9 61.82 20.08 61.5 19.48ZM67.48 19L68.88 19.38C68.48 20.12 68.04 20.88 67.7 21.4L66.56 21.08C66.88 20.48 67.28 19.58 67.48 19ZM52.54 19.58C54.1 19.14 56.44 18.42 58.72 17.68L58.92 19.06C56.84 19.78 54.64 20.5 52.94 21.04L52.54 19.58ZM52.82 13.24H58.9V14.64H52.82V13.24ZM55.34 9.22H56.74V25.86C56.74 26.7 56.54 27.1 56.04 27.34C55.58 27.58 54.8 27.62 53.54 27.62C53.48 27.26 53.3 26.64 53.1 26.22C53.98 26.24 54.74 26.24 54.98 26.22C55.22 26.22 55.34 26.16 55.34 25.86V9.22Z" fill="black"/>
<path d="M126 15L132 21L138 15" stroke="black" stroke-width="2" stroke-linecap="round" stroke-linejoin="round"/>
<circle cx="110.832" cy="14.8317" r="11" transform="rotate(-17.765 110.832 14.8317)" fill="#262E49" fill-opacity="0.4"/>
<circle cx="110.832" cy="14.8317" r="6.05397" transform="rotate(-17.765 110.832 14.8317)" fill="#262E49" fill-opacity="0.4"/>
<g filter="url(#filter0_d_66_6704)">
<path d="M109.335 38.6772C108.794 37.9818 108.118 36.5717 106.939 34.814C106.263 33.8482 104.602 32.0132 104.1 31.0667C103.738 30.4915 103.633 29.7912 103.81 29.1351C104.113 27.8877 105.297 27.0602 106.572 27.2035C107.559 27.4017 108.466 27.8853 109.18 28.5943C109.679 29.064 110.137 29.5744 110.551 30.1202C110.86 30.5065 110.938 30.6611 111.285 31.1053C111.633 31.5496 111.865 31.9939 111.691 31.3371C111.556 30.3713 111.324 28.7488 110.996 27.3001C110.745 26.1991 110.687 26.0253 110.455 25.1947C110.223 24.3641 110.088 23.6687 109.837 22.7222C109.607 21.7923 109.427 20.851 109.296 19.9021C109.052 18.6885 109.23 17.4281 109.798 16.3287C110.473 15.6939 111.463 15.5263 112.309 15.9037C113.16 16.5321 113.795 17.4097 114.125 18.4148C114.631 19.6517 114.969 20.9511 115.129 22.278C115.438 24.2096 116.037 27.0297 116.056 27.6092C116.056 26.8945 115.921 25.3878 116.056 24.7118C116.19 24.007 116.68 23.4221 117.351 23.1665C117.926 22.99 118.534 22.9503 119.128 23.0506C119.727 23.1758 120.257 23.5203 120.615 24.0164C121.063 25.1433 121.311 26.3393 121.349 27.5512C121.401 26.49 121.582 25.4391 121.89 24.422C122.213 23.9672 122.684 23.6393 123.223 23.4949C123.861 23.3781 124.516 23.3781 125.154 23.4949C125.678 23.6699 126.136 24 126.468 24.4413C126.877 25.4658 127.124 26.5474 127.202 27.6478C127.202 27.9182 127.337 26.8945 127.762 26.2184C127.983 25.5628 128.537 25.0748 129.215 24.9383C129.893 24.8017 130.592 25.0374 131.05 25.5564C131.507 26.0754 131.653 26.799 131.432 27.4546C131.432 28.7102 131.432 28.6522 131.432 29.5021C131.432 30.352 131.432 31.1053 131.432 31.82C131.362 32.9504 131.207 34.0738 130.968 35.181C130.632 36.1605 130.164 37.0898 129.578 37.9432C128.64 38.9862 127.865 40.1649 127.279 41.4394C127.134 42.0725 127.069 42.7215 127.086 43.371C127.084 43.971 127.162 44.5686 127.318 45.148C126.528 45.2315 125.732 45.2315 124.942 45.148C124.188 45.0321 123.261 43.5255 123.01 43.0619C122.886 42.813 122.632 42.6557 122.353 42.6557C122.075 42.6557 121.821 42.813 121.697 43.0619C121.272 43.7959 120.325 45.1287 119.669 45.206C118.374 45.3605 115.709 45.206 113.603 45.206C113.603 45.206 113.951 43.2744 113.159 42.579C112.367 41.8836 111.556 41.0724 110.957 40.5315L109.335 38.6772Z" fill="white"/>
<path fill-rule="evenodd" clip-rule="evenodd" d="M132.155 31.865C132.156 30.7287 132.156 30.7287 132.156 29.5021V27.5638C132.403 26.6961 132.193 25.7586 131.593 25.0775C130.965 24.3643 130.004 24.0406 129.072 24.2282C128.437 24.356 127.881 24.708 127.496 25.2043C127.394 24.8544 127.275 24.5106 127.14 24.1727C126.627 23.4474 126.047 23.0295 125.384 22.8079C124.56 22.6498 123.817 22.6498 123.092 22.7823C122.367 22.9745 121.774 23.373 121.356 23.9248C121.334 23.8661 121.311 23.8075 121.288 23.749C120.739 22.9499 120.052 22.5037 119.276 22.3416C118.544 22.2173 117.821 22.2644 117.138 22.474C116.699 22.6405 116.322 22.8985 116.025 23.2217C115.954 22.8222 115.895 22.4766 115.845 22.1635C115.68 20.7998 115.326 19.4374 114.795 18.1404C114.436 17.0409 113.711 16.0387 112.739 15.321C111.491 14.7459 110.189 14.9662 109.302 15.801L109.155 15.9959C108.511 17.2416 108.31 18.6696 108.586 20.0446C108.713 20.975 108.898 21.9413 109.133 22.8958C109.243 23.3078 109.243 23.3098 109.474 24.2777C109.489 24.3397 109.496 24.3708 109.504 24.4019C109.511 24.433 109.519 24.4642 109.534 24.5266C109.613 24.8504 109.681 25.1175 109.757 25.3894C109.887 25.8514 109.937 26.0303 109.98 26.1908L110.006 26.2868C110.086 26.587 110.164 26.9105 110.289 27.4612C110.405 27.9691 110.506 28.4796 110.603 29.0339C110.313 28.6984 110.003 28.3744 109.677 28.067C108.875 27.2713 107.841 26.7195 106.715 26.4934C105.015 26.2997 103.496 27.3623 103.106 28.964C102.881 29.7974 103.017 30.7062 103.487 31.4526C103.71 31.8768 104.142 32.4596 104.909 33.4109L105.029 33.5587C105.92 34.6587 106.08 34.8564 106.228 35.0626C106.265 35.1132 106.3 35.1643 106.346 35.2294C106.625 35.6466 107.116 36.4551 107.588 37.2347C108.117 38.1063 108.623 38.9419 108.789 39.1542L110.412 41.0085C110.624 41.2046 111.187 41.7376 111.574 42.1033C111.764 42.2837 111.912 42.4234 111.953 42.462C112.14 42.6366 112.312 42.7942 112.477 42.9421C112.528 42.9878 112.554 43.0105 112.579 43.0332C112.605 43.0558 112.63 43.0784 112.681 43.1233C112.797 43.2246 112.893 43.4781 112.934 43.8485C112.968 44.1627 112.959 44.5133 112.921 44.8496C112.909 44.9605 112.897 45.0401 112.89 45.0776C112.81 45.5219 113.152 45.9303 113.603 45.9303C114.123 45.9303 114.66 45.9388 115.513 45.9578L115.807 45.9645C118.119 46.017 118.985 46.017 119.754 45.9252C120.634 45.8218 121.569 44.7288 122.362 43.3854C123.037 44.6319 123.904 45.7212 124.832 45.8639C125.706 45.9572 126.553 45.9572 127.394 45.8683C127.837 45.8215 128.133 45.39 128.017 44.96C127.878 44.4426 127.808 43.909 127.81 43.3733C127.794 42.7634 127.853 42.1752 127.985 41.6014C128.492 40.5336 129.227 39.4162 130.116 38.4275C130.798 37.446 131.296 36.4578 131.653 35.4161C131.922 34.1908 132.082 33.0315 132.155 31.865ZM112.68 41.1553C112.303 40.7988 111.644 40.176 111.443 39.994L109.897 38.2196C109.784 38.0662 109.416 37.4573 108.989 36.7501C108.481 35.9092 107.889 34.9294 107.541 34.4107C107.38 34.1801 107.181 33.9202 106.91 33.5802C106.804 33.4481 106.729 33.3547 106.54 33.1215L106.155 32.6469L106.037 32.5013C105.332 31.6283 104.929 31.0844 104.74 30.7272C104.459 30.2769 104.385 29.785 104.509 29.3241C104.731 28.4132 105.578 27.8208 106.492 27.9233C107.277 28.0839 108.056 28.4994 108.67 29.1084C109.153 29.5637 109.585 30.0442 109.974 30.558C110.095 30.7095 110.171 30.8113 110.291 30.9788C110.497 31.2673 110.555 31.3475 110.715 31.5518C110.726 31.5663 110.757 31.608 110.798 31.6629C110.909 31.8141 111.095 32.0659 111.157 32.131C111.232 32.2271 111.232 32.2271 111.618 32.385C112.444 32.0804 112.449 32.0736 112.473 31.6853C112.482 31.5327 112.456 31.3962 112.391 31.1518C112.171 29.5378 111.975 28.3435 111.702 27.14C111.573 26.5733 111.491 26.2345 111.406 25.9157L111.379 25.8132C111.334 25.645 111.281 25.4582 111.153 25C111.082 24.7458 111.017 24.4938 110.942 24.1847C110.927 24.1245 110.92 24.0942 110.913 24.064C110.905 24.0334 110.898 24.0029 110.883 23.9415C110.649 22.9578 110.648 22.9535 110.537 22.5365C110.317 21.6434 110.141 20.7269 110.014 19.8032C109.804 18.7523 109.937 17.7042 110.383 16.7792C110.84 16.4088 111.471 16.3228 112.014 16.5652C112.609 17.0256 113.154 17.7785 113.437 18.6408C113.936 19.8661 114.258 21.1024 114.41 22.3649C114.494 22.8918 114.595 23.4662 114.731 24.1983L114.791 24.5226C115.321 27.366 115.324 27.3863 115.333 27.6333C115.364 28.5826 116.781 28.559 116.781 27.6092C116.781 27.3999 116.777 27.2877 116.75 26.6599C116.74 26.4122 116.736 26.3067 116.731 26.1621C116.71 25.5207 116.721 25.0845 116.767 24.8538C116.855 24.3892 117.173 24.0093 117.609 23.8433C118.031 23.7156 118.525 23.6833 119.007 23.7648C119.402 23.8479 119.775 24.0906 120.028 24.4402C120.358 25.3327 120.59 26.446 120.625 27.574C120.654 28.5014 122.027 28.5132 122.073 27.5865C122.119 26.6269 122.279 25.6762 122.547 24.754C122.768 24.482 123.07 24.2858 123.41 24.1945C123.905 24.1064 124.472 24.1064 125.024 24.2074C125.309 24.3103 125.645 24.5526 125.889 24.8766C126.176 25.6648 126.407 26.673 126.479 27.6986C126.475 27.6972 126.471 27.696 126.468 27.6975C126.458 27.7046 126.488 27.7734 126.667 28.1756C127.403 28.3034 127.626 28.3421 127.734 28.2482C127.781 28.2073 127.805 28.1411 127.841 28.0461L127.841 28.046C127.891 27.9442 127.891 27.9441 127.905 27.9009C127.923 27.8481 127.942 27.7776 127.975 27.6499C128.047 27.3767 128.113 27.164 128.199 26.9553C128.255 26.8188 128.315 26.7003 128.375 26.6039C128.587 26.0393 128.933 25.7339 129.358 25.6484C129.782 25.5629 130.22 25.7104 130.506 26.0353C130.793 26.3602 130.884 26.8131 130.746 27.2234L130.708 27.4546V31.82C130.641 32.8692 130.491 33.9568 130.26 35.0286C129.968 35.8633 129.53 36.7336 128.981 37.5328C128.052 38.5561 127.237 39.7961 126.621 41.1369C126.414 41.9699 126.343 42.6797 126.362 43.39C126.36 43.7503 126.387 44.1165 126.441 44.4817C125.966 44.4957 125.491 44.4777 125.018 44.4277C124.783 44.3907 124.065 43.4885 123.647 42.7169C123.412 42.2439 122.906 41.9314 122.354 41.9314C121.801 41.9314 121.296 42.2439 121.049 42.7384C120.569 43.5637 119.802 44.461 119.584 44.4866C118.914 44.5666 118.058 44.5666 115.841 44.5162L115.546 44.5095C115.09 44.4993 114.724 44.4921 114.4 44.4876C114.41 44.2211 114.403 43.953 114.374 43.6908C114.298 42.9948 114.08 42.4232 113.637 42.0347C113.589 41.9927 113.565 41.9715 113.541 41.9503C113.517 41.9288 113.493 41.9072 113.445 41.8638C113.287 41.7227 113.122 41.5713 112.942 41.4027C112.912 41.3749 112.813 41.2819 112.68 41.1553Z" fill="black"/>
<path d="M125.715 39.7316V33.0642C125.715 32.6651 125.39 32.3416 124.99 32.3416C124.59 32.3416 124.266 32.6651 124.266 33.0642V39.7316C124.266 40.1307 124.59 40.4542 124.99 40.4542C125.39 40.4542 125.715 40.1307 125.715 39.7316Z" fill="black"/>
<path d="M121.89 39.7292L121.851 33.0583C121.849 32.6602 121.523 32.3393 121.123 32.3416C120.723 32.3439 120.4 32.6685 120.403 33.0666L120.441 39.7375C120.444 40.1356 120.77 40.4565 121.17 40.4542C121.57 40.4519 121.892 40.1273 121.89 39.7292Z" fill="black"/>
<path d="M116.539 33.0736L116.578 39.7307C116.58 40.1326 116.906 40.4566 117.307 40.4542C117.707 40.4519 118.029 40.1241 118.027 39.7222L117.988 33.0651C117.986 32.6632 117.659 32.3392 117.259 32.3416C116.859 32.3439 116.537 32.6717 116.539 33.0736Z" fill="black"/>
</g>
<defs>
<filter id="filter0_d_66_6704" x="102.2" y="15" width="30.8576" height="32.8" filterUnits="userSpaceOnUse" color-interpolation-filters="sRGB">
<feFlood flood-opacity="0" result="BackgroundImageFix"/>
<feColorMatrix in="SourceAlpha" type="matrix" values="0 0 0 0 0 0 0 0 0 0 0 0 0 0 0 0 0 0 127 0" result="hardAlpha"/>
<feOffset dy="1"/>
<feGaussianBlur stdDeviation="0.4"/>
<feColorMatrix type="matrix" values="0 0 0 0 0 0 0 0 0 0 0 0 0 0 0 0 0 0 0.5 0"/>
<feBlend mode="normal" in2="BackgroundImageFix" result="effect1_dropShadow_66_6704"/>
<feBlend mode="normal" in="SourceGraphic" in2="effect1_dropShadow_66_6704" result="shape"/>
</filter>
</defs>
</svg>
